<?xml version="1.0"?>
<svg
  xmlns="http://www.w3.org/2000/svg"
  version="1.1"
  width="256"
  height="256">
  <title>Out of project scope icon (inverted monochrome variant)</title>
  <g id="Out_of_project_scope-imono-group">
    <path
      id="Out_of_project_scope-imono-shapebg"
      style="fill: black;"
      d="M 16,15.999939 H 240 V 239.99999 H 16 Z"/>
    <path
      id="Out_of_project_scope-imono-shapefg1"
      style="fill: white;"
      d="m 16,47.999989 v 32.000012 c 32.670937,0 63.000636,9.739275 88.2832,26.462889 L 127.16992,83.578117 C 95.775778,61.191636 57.400217,47.999989 16,47.999989 Z"/>
    <path
      id="Out_of_project_scope-imono-shapefg2"
      style="fill: white;"
      d="m 172.42969,128.82617 -22.88867,22.88866 c 16.72183,25.28372 26.45897,55.61466 26.45897,88.28516 H 208 c 0,-41.39876 -13.18786,-79.77748 -35.57031,-111.17382 z"/>
    <path
      id="Out_of_project_scope-imono-arrowfg"
      style="fill: white;"
      d="m 220.97266,33.605507 c -1.26043,-0.107339 -2.96875,0.492094 -2.96875,0.492094 l -68.28516,23.898406 c -0.71425,0.250205 -1.71484,0.799975 -1.71484,1.999975 0,1.2 1.00144,1.500095 2.66797,2.000051 l 15.93359,4.781253 -150.605467,150.589904 -1e-6,22.6328 H 38.6328 l 150.58986,-150.605558 4.78125,15.933658 c 0.50003,1.66662 0.79999,2.66789 2,2.66789 1.20001,0 1.75002,-1.00052 2,-1.71477 l 23.89844,-68.285177 c 0,0 1.06451,-3.03685 0.10159,-4.000025 -0.24076,-0.241134 -0.61115,-0.35452 -1.03124,-0.390803 z"/>
  </g>
</svg>
